{"title":"My Jigar Da Tukda","uid":7103898,"size":165806575,"categoryP":"video","categoryS":"music_videos","magnet":"?xt=urn:btih:d5ba8fea36b10663a858477ecda6274de746fd16&amp;dn=My+Jigar+Da+Tukda&amp;tr=udp%3A%2F%2Ftracker.openbittorrent.com%3A80&amp;tr=udp%3A%2F%2Fopen.demonii.com%3A1337&amp;tr=udp%3A%2F%2Ftracker.coppersurfer.tk%3A6969&amp;tr=udp%3A%2F%2Fexodus.desync.com%3A6969","seeders":1,"leechers":0,"uploader":"akshaygop","files":1,"time":1331797840,"description":"My Jigar Da Tukda song from the movie Ladies vs Ricky Bahl\n\n\nComplete name : E:Music VideosOthersMy Jigar Da Tukda.mkv\nFormat : Matroska\nFormat version : Version 2\nFile size : 158 MiB\nDuration : 4mn 20s\nOverall bit rate : 5 101 Kbps\nEncoded date : UTC 2012-01-09 09:46:41\nWriting application : mkvmerge v4.9.1 ('Ich will') built on Jul 11 2011 23:53:15\nWriting library : libebml v1.2.1 + libmatroska v1.1.1\n\nVideo\nID : 1\nFormat : AVC\nFormat/Info : Advanced Video Codec\nFormat profile : &lt;a class=&quot;__cf_email__&quot; href=&quot;/cdn-cgi/l/email-protection&quot; data-cfemail=&quot;e5ad8c828da5a9d1cbd4&quot;&gt;[email&amp;#160;protected]&lt;/a&gt;&lt;script cf-hash='f9e31' type=&quot;text/javascript&quot;&gt;\n/* &lt;![CDATA[ */!function(){try{var t=&quot;currentScript&quot;in document?document.currentScript:function(){for(var t=document.getElementsByTagName(&quot;script&quot;),e=t.length;e--;)if(t[e].getAttribute(&quot;cf-hash&quot;))return t[e]}();if(t&amp;&amp;t.previousSibling){var e,r,n,i,c=t.previousSibling,a=c.getAttribute(&quot;data-cfemail&quot;);if(a){for(e=&quot;&quot;,r=parseInt(a.substr(0,2),16),n=2;a.length-n;n+=2)i=parseInt(a.substr(n,2),16)^r,e+=String.fromCharCode(i);e=document.createTextNode(e),c.parentNode.replaceChild(e,c)}}}catch(u){}}();/* ]]&gt; */&lt;/script&gt;\nFormat settings, CABAC : Yes\nFormat settings, ReFrames : 9 frames\nCodec ID : V_MPEG4/ISO/AVC\nDuration : 4mn 20s\nBit rate : 4 551 Kbps\nWidth : 1 280 pixels\nHeight : 544 pixels\nDisplay aspect ratio : 2.35:1\nFrame rate : 23.976 fps\nColor space : YUV\nChroma subsampling : 4:2:0\nBit depth : 8 bits\nScan type : Progressive\nBits/(Pixel*Frame) : 0.273\nStream size : 141 MiB (89%)\nTitle : KaMaL DDR\nLanguage : Hindi\nDefault : Yes\nForced : No\n\nAudio\nID : 2\nFormat : AC-3\nFormat/Info : Audio Coding 3\nMode extension : CM (complete main)\nCodec ID : A_AC3\nDuration : 4mn 20s\nBit rate mode : Constant\nBit rate : 448 Kbps\nChannel(s) : 6 channels\nChannel positions : Front: L C R, Side: L R, LFE\nSampling rate : 48.0 KHz\nBit depth : 16 bits\nCompression mode : Lossy\nDelay relative to video : 27ms\nStream size : 13.9 MiB (9%)\nTitle : KaMaL DDR\nLanguage : Hindi\nDefault : Yes\nForced : No","torrent":{"xt":"urn:btih:d5ba8fea36b10663a858477ecda6274de746fd16","amp;dn":"My+Jigar+Da+Tukda","amp;tr":["udp%3A%2F%2Ftracker.openbittorrent.com%3A80","udp%3A%2F%2Fopen.demonii.com%3A1337","udp%3A%2F%2Ftracker.coppersurfer.tk%3A6969","udp%3A%2F%2Fexodus.desync.com%3A6969"],"infoHash":"d5ba8fea36b10663a858477ecda6274de746fd16","infoHashBuffer":{"type":"Buffer","data":[213,186,143,234,54,177,6,99,168,88,71,126,205,166,39,77,231,70,253,22]},"announce":[],"urlList":[]}}